# Wavefront OBJ file automatically generated by Tiled2Unity

# Vertices (Count = 169)
v 0 -0.32 0
v -0.32 -0.32 0
v -0.32 0 0
v 0 0 0
v -0.64 -0.32 0
v -0.64 0 0
v -0.96 -0.32 0
v -0.96 0 0
v -1.28 -0.32 0
v -1.28 0 0
v -1.6 -0.32 0
v -1.6 0 0
v -1.92 -0.32 0
v -1.92 0 0
v -2.24 -0.32 0
v -2.24 0 0
v -2.56 -0.32 0
v -2.56 0 0
v -2.88 -0.32 0
v -2.88 0 0
v -3.2 -0.32 0
v -3.2 0 0
v -3.52 -0.32 0
v -3.52 0 0
v -3.84 -0.32 0
v -3.84 0 0
v 0 -0.64 0
v -0.32 -0.64 0
v -0.64 -0.64 0
v -0.96 -0.64 0
v -1.28 -0.64 0
v -1.6 -0.64 0
v -1.92 -0.64 0
v -2.24 -0.64 0
v -2.56 -0.64 0
v -2.88 -0.64 0
v -3.2 -0.64 0
v -3.52 -0.64 0
v -3.84 -0.64 0
v 0 -0.96 0
v -0.32 -0.96 0
v -0.64 -0.96 0
v -0.96 -0.96 0
v -1.28 -0.96 0
v -1.6 -0.96 0
v -1.92 -0.96 0
v -2.24 -0.96 0
v -2.56 -0.96 0
v -2.88 -0.96 0
v -3.2 -0.96 0
v -3.52 -0.96 0
v -3.84 -0.96 0
v 0 -1.28 0
v -0.32 -1.28 0
v -0.64 -1.28 0
v -0.96 -1.28 0
v -1.28 -1.28 0
v -1.6 -1.28 0
v -1.92 -1.28 0
v -2.24 -1.28 0
v -2.56 -1.28 0
v -2.88 -1.28 0
v -3.2 -1.28 0
v -3.52 -1.28 0
v -3.84 -1.28 0
v 0 -1.6 0
v -0.32 -1.6 0
v -0.64 -1.6 0
v -0.96 -1.6 0
v -1.28 -1.6 0
v -1.6 -1.6 0
v -1.92 -1.6 0
v -2.24 -1.6 0
v -2.56 -1.6 0
v -2.88 -1.6 0
v -3.2 -1.6 0
v -3.52 -1.6 0
v -3.84 -1.6 0
v 0 -1.92 0
v -0.32 -1.92 0
v -0.64 -1.92 0
v -0.96 -1.92 0
v -1.28 -1.92 0
v -1.6 -1.92 0
v -1.92 -1.92 0
v -2.24 -1.92 0
v -2.56 -1.92 0
v -2.88 -1.92 0
v -3.2 -1.92 0
v -3.52 -1.92 0
v -3.84 -1.92 0
v 0 -2.24 0
v -0.32 -2.24 0
v -0.64 -2.24 0
v -0.96 -2.24 0
v -1.28 -2.24 0
v -1.6 -2.24 0
v -1.92 -2.24 0
v -2.24 -2.24 0
v -2.56 -2.24 0
v -2.88 -2.24 0
v -3.2 -2.24 0
v -3.52 -2.24 0
v -3.84 -2.24 0
v 0 -2.56 0
v -0.32 -2.56 0
v -0.64 -2.56 0
v -0.96 -2.56 0
v -1.28 -2.56 0
v -1.6 -2.56 0
v -1.92 -2.56 0
v -2.24 -2.56 0
v -2.56 -2.56 0
v -2.88 -2.56 0
v -3.2 -2.56 0
v -3.52 -2.56 0
v -3.84 -2.56 0
v 0 -2.88 0
v -0.32 -2.88 0
v -0.64 -2.88 0
v -0.96 -2.88 0
v -1.28 -2.88 0
v -1.6 -2.88 0
v -1.92 -2.88 0
v -2.24 -2.88 0
v -2.56 -2.88 0
v -2.88 -2.88 0
v -3.2 -2.88 0
v -3.52 -2.88 0
v -3.84 -2.88 0
v 0 -3.2 0
v -0.32 -3.2 0
v -0.64 -3.2 0
v -0.96 -3.2 0
v -1.28 -3.2 0
v -1.6 -3.2 0
v -1.92 -3.2 0
v -2.24 -3.2 0
v -2.56 -3.2 0
v -2.88 -3.2 0
v -3.2 -3.2 0
v -3.52 -3.2 0
v -3.84 -3.2 0
v 0 -3.52 0
v -0.32 -3.52 0
v -0.64 -3.52 0
v -0.96 -3.52 0
v -1.28 -3.52 0
v -1.6 -3.52 0
v -1.92 -3.52 0
v -2.24 -3.52 0
v -2.56 -3.52 0
v -2.88 -3.52 0
v -3.2 -3.52 0
v -3.52 -3.52 0
v -3.84 -3.52 0
v 0 -3.84 0
v -0.32 -3.84 0
v -0.64 -3.84 0
v -0.96 -3.84 0
v -1.28 -3.84 0
v -1.6 -3.84 0
v -1.92 -3.84 0
v -2.24 -3.84 0
v -2.56 -3.84 0
v -2.88 -3.84 0
v -3.2 -3.84 0
v -3.52 -3.84 0
v -3.84 -3.84 0

# Texture cooridinates (Count = 40)
vt 0.5938721 0.8751221
vt 0.6248779 0.8751221
vt 0.6248779 0.9061279
vt 0.5938721 0.9061279
vt 0.3438721 0.7501221
vt 0.3748779 0.7501221
vt 0.3748779 0.7811279
vt 0.3438721 0.7811279
vt 0.03137207 0.7188721
vt 0.06237793 0.7188721
vt 0.06237793 0.7498779
vt 0.03137207 0.7498779
vt 0.3126221 0.7501221
vt 0.3436279 0.7501221
vt 0.3436279 0.7811279
vt 0.3126221 0.7811279
vt 0.4688721 0.7501221
vt 0.4998779 0.7501221
vt 0.4998779 0.7811279
vt 0.4688721 0.7811279
vt 0.4688721 0.7813721
vt 0.4998779 0.7813721
vt 0.4998779 0.8123779
vt 0.4688721 0.8123779
vt 0.4688721 0.9063721
vt 0.4998779 0.9063721
vt 0.4998779 0.9373779
vt 0.4688721 0.9373779
vt 0.5001221 0.9063721
vt 0.5311279 0.9063721
vt 0.5311279 0.9373779
vt 0.5001221 0.9373779
vt 0.5313721 0.9063721
vt 0.5623779 0.9063721
vt 0.5623779 0.9373779
vt 0.5313721 0.9373779
vt 0.0001220703 0.0001220703
vt 0.9998779 0.0001220703
vt 0.9998779 0.9998779
vt 0.0001220703 0.9998779

# Normal
vn 0 0 -1

# Groups (Count = 4)

g mesh_0001
f 1/1/1 2/2/1 3/3/1 4/4/1
f 2/1/1 5/2/1 6/3/1 3/4/1
f 5/1/1 7/2/1 8/3/1 6/4/1
f 7/1/1 9/2/1 10/3/1 8/4/1
f 9/1/1 11/2/1 12/3/1 10/4/1
f 11/1/1 13/2/1 14/3/1 12/4/1
f 13/1/1 15/2/1 16/3/1 14/4/1
f 15/1/1 17/2/1 18/3/1 16/4/1
f 17/1/1 19/2/1 20/3/1 18/4/1
f 19/1/1 21/2/1 22/3/1 20/4/1
f 21/1/1 23/2/1 24/3/1 22/4/1
f 23/1/1 25/2/1 26/3/1 24/4/1
f 27/1/1 28/2/1 2/3/1 1/4/1
f 28/1/1 29/2/1 5/3/1 2/4/1
f 29/1/1 30/2/1 7/3/1 5/4/1
f 30/1/1 31/2/1 9/3/1 7/4/1
f 31/1/1 32/2/1 11/3/1 9/4/1
f 32/1/1 33/2/1 13/3/1 11/4/1
f 33/1/1 34/2/1 15/3/1 13/4/1
f 34/1/1 35/2/1 17/3/1 15/4/1
f 35/1/1 36/2/1 19/3/1 17/4/1
f 36/1/1 37/2/1 21/3/1 19/4/1
f 37/1/1 38/2/1 23/3/1 21/4/1
f 38/1/1 39/2/1 25/3/1 23/4/1
f 40/1/1 41/2/1 28/3/1 27/4/1
f 41/1/1 42/2/1 29/3/1 28/4/1
f 42/1/1 43/2/1 30/3/1 29/4/1
f 43/1/1 44/2/1 31/3/1 30/4/1
f 44/1/1 45/2/1 32/3/1 31/4/1
f 45/1/1 46/2/1 33/3/1 32/4/1
f 46/1/1 47/2/1 34/3/1 33/4/1
f 47/1/1 48/2/1 35/3/1 34/4/1
f 48/1/1 49/2/1 36/3/1 35/4/1
f 49/1/1 50/2/1 37/3/1 36/4/1
f 50/1/1 51/2/1 38/3/1 37/4/1
f 51/1/1 52/2/1 39/3/1 38/4/1
f 53/1/1 54/2/1 41/3/1 40/4/1
f 54/1/1 55/2/1 42/3/1 41/4/1
f 55/1/1 56/2/1 43/3/1 42/4/1
f 56/1/1 57/2/1 44/3/1 43/4/1
f 57/1/1 58/2/1 45/3/1 44/4/1
f 58/1/1 59/2/1 46/3/1 45/4/1
f 59/1/1 60/2/1 47/3/1 46/4/1
f 60/1/1 61/2/1 48/3/1 47/4/1
f 61/1/1 62/2/1 49/3/1 48/4/1
f 62/1/1 63/2/1 50/3/1 49/4/1
f 63/1/1 64/2/1 51/3/1 50/4/1
f 64/1/1 65/2/1 52/3/1 51/4/1
f 66/1/1 67/2/1 54/3/1 53/4/1
f 67/1/1 68/2/1 55/3/1 54/4/1
f 68/1/1 69/2/1 56/3/1 55/4/1
f 69/1/1 70/2/1 57/3/1 56/4/1
f 70/1/1 71/2/1 58/3/1 57/4/1
f 71/1/1 72/2/1 59/3/1 58/4/1
f 72/1/1 73/2/1 60/3/1 59/4/1
f 73/1/1 74/2/1 61/3/1 60/4/1
f 74/1/1 75/2/1 62/3/1 61/4/1
f 75/1/1 76/2/1 63/3/1 62/4/1
f 76/1/1 77/2/1 64/3/1 63/4/1
f 77/1/1 78/2/1 65/3/1 64/4/1
f 79/1/1 80/2/1 67/3/1 66/4/1
f 80/1/1 81/2/1 68/3/1 67/4/1
f 81/1/1 82/2/1 69/3/1 68/4/1
f 82/1/1 83/2/1 70/3/1 69/4/1
f 83/1/1 84/2/1 71/3/1 70/4/1
f 84/1/1 85/2/1 72/3/1 71/4/1
f 85/1/1 86/2/1 73/3/1 72/4/1
f 86/1/1 87/2/1 74/3/1 73/4/1
f 87/1/1 88/2/1 75/3/1 74/4/1
f 88/1/1 89/2/1 76/3/1 75/4/1
f 89/1/1 90/2/1 77/3/1 76/4/1
f 90/1/1 91/2/1 78/3/1 77/4/1
f 92/1/1 93/2/1 80/3/1 79/4/1
f 93/1/1 94/2/1 81/3/1 80/4/1
f 94/1/1 95/2/1 82/3/1 81/4/1
f 95/1/1 96/2/1 83/3/1 82/4/1
f 96/1/1 97/2/1 84/3/1 83/4/1
f 97/1/1 98/2/1 85/3/1 84/4/1
f 98/1/1 99/2/1 86/3/1 85/4/1
f 99/1/1 100/2/1 87/3/1 86/4/1
f 100/1/1 101/2/1 88/3/1 87/4/1
f 101/1/1 102/2/1 89/3/1 88/4/1
f 102/1/1 103/2/1 90/3/1 89/4/1
f 103/1/1 104/2/1 91/3/1 90/4/1
f 105/1/1 106/2/1 93/3/1 92/4/1
f 106/1/1 107/2/1 94/3/1 93/4/1
f 107/1/1 108/2/1 95/3/1 94/4/1
f 108/1/1 109/2/1 96/3/1 95/4/1
f 109/1/1 110/2/1 97/3/1 96/4/1
f 110/1/1 111/2/1 98/3/1 97/4/1
f 111/1/1 112/2/1 99/3/1 98/4/1
f 112/1/1 113/2/1 100/3/1 99/4/1
f 113/1/1 114/2/1 101/3/1 100/4/1
f 114/1/1 115/2/1 102/3/1 101/4/1
f 115/1/1 116/2/1 103/3/1 102/4/1
f 116/1/1 117/2/1 104/3/1 103/4/1
f 118/1/1 119/2/1 106/3/1 105/4/1
f 119/1/1 120/2/1 107/3/1 106/4/1
f 120/1/1 121/2/1 108/3/1 107/4/1
f 121/1/1 122/2/1 109/3/1 108/4/1
f 122/1/1 123/2/1 110/3/1 109/4/1
f 123/1/1 124/2/1 111/3/1 110/4/1
f 124/1/1 125/2/1 112/3/1 111/4/1
f 125/1/1 126/2/1 113/3/1 112/4/1
f 126/1/1 127/2/1 114/3/1 113/4/1
f 127/1/1 128/2/1 115/3/1 114/4/1
f 128/1/1 129/2/1 116/3/1 115/4/1
f 129/1/1 130/2/1 117/3/1 116/4/1
f 131/1/1 132/2/1 119/3/1 118/4/1
f 132/1/1 133/2/1 120/3/1 119/4/1
f 133/1/1 134/2/1 121/3/1 120/4/1
f 134/1/1 135/2/1 122/3/1 121/4/1
f 135/1/1 136/2/1 123/3/1 122/4/1
f 136/1/1 137/2/1 124/3/1 123/4/1
f 137/1/1 138/2/1 125/3/1 124/4/1
f 138/1/1 139/2/1 126/3/1 125/4/1
f 139/1/1 140/2/1 127/3/1 126/4/1
f 140/1/1 141/2/1 128/3/1 127/4/1
f 141/1/1 142/2/1 129/3/1 128/4/1
f 142/1/1 143/2/1 130/3/1 129/4/1
f 144/1/1 145/2/1 132/3/1 131/4/1
f 145/1/1 146/2/1 133/3/1 132/4/1
f 146/1/1 147/2/1 134/3/1 133/4/1
f 147/1/1 148/2/1 135/3/1 134/4/1
f 148/1/1 149/2/1 136/3/1 135/4/1
f 149/1/1 150/2/1 137/3/1 136/4/1
f 150/1/1 151/2/1 138/3/1 137/4/1
f 151/1/1 152/2/1 139/3/1 138/4/1
f 152/1/1 153/2/1 140/3/1 139/4/1
f 153/1/1 154/2/1 141/3/1 140/4/1
f 154/1/1 155/2/1 142/3/1 141/4/1
f 155/1/1 156/2/1 143/3/1 142/4/1
f 157/1/1 158/2/1 145/3/1 144/4/1
f 158/1/1 159/2/1 146/3/1 145/4/1
f 159/1/1 160/2/1 147/3/1 146/4/1
f 160/1/1 161/2/1 148/3/1 147/4/1
f 161/1/1 162/2/1 149/3/1 148/4/1
f 162/1/1 163/2/1 150/3/1 149/4/1
f 163/1/1 164/2/1 151/3/1 150/4/1
f 164/1/1 165/2/1 152/3/1 151/4/1
f 165/1/1 166/2/1 153/3/1 152/4/1
f 166/1/1 167/2/1 154/3/1 153/4/1
f 167/1/1 168/2/1 155/3/1 154/4/1
f 168/1/1 169/2/1 156/3/1 155/4/1

g mesh_0002
f 29/5/1 30/6/1 7/7/1 5/8/1
f 38/9/1 39/10/1 25/11/1 23/12/1
f 67/9/1 68/10/1 55/11/1 54/12/1
f 103/5/1 104/6/1 91/7/1 90/8/1
f 118/9/1 119/10/1 106/11/1 105/12/1
f 129/9/1 130/10/1 117/11/1 116/12/1
f 133/13/1 134/14/1 121/15/1 120/16/1
f 167/9/1 168/10/1 155/11/1 154/12/1

g mesh_0003
f 15/17/1 17/18/1 18/19/1 16/20/1
f 41/17/1 42/18/1 29/19/1 28/20/1
f 63/21/1 64/22/1 51/23/1 50/24/1
f 96/17/1 97/18/1 84/19/1 83/20/1
f 127/17/1 128/18/1 115/19/1 114/20/1
f 160/25/1 161/26/1 148/27/1 147/28/1
f 161/29/1 162/30/1 149/31/1 148/32/1
f 162/33/1 163/34/1 150/35/1 149/36/1

g mesh_0004
f 15/37/1 17/38/1 18/39/1 16/40/1
f 29/37/1 30/38/1 7/39/1 5/40/1
f 38/37/1 39/38/1 25/39/1 23/40/1
f 41/37/1 42/38/1 29/39/1 28/40/1
f 63/37/1 64/38/1 51/39/1 50/40/1
f 67/37/1 68/38/1 55/39/1 54/40/1
f 96/37/1 97/38/1 84/39/1 83/40/1
f 103/37/1 104/38/1 91/39/1 90/40/1
f 118/37/1 119/38/1 106/39/1 105/40/1
f 127/37/1 128/38/1 115/39/1 114/40/1
f 129/37/1 130/38/1 117/39/1 116/40/1
f 133/37/1 134/38/1 121/39/1 120/40/1
f 160/37/1 161/38/1 148/39/1 147/40/1
f 161/37/1 162/38/1 149/39/1 148/40/1
f 162/37/1 163/38/1 150/39/1 149/40/1
f 167/37/1 168/38/1 155/39/1 154/40/1

